<svg data-v-fde0c5aa="" xmlns="http://www.w3.org/2000/svg" viewBox="0 0 300 300" class="iconLeft"><!----><defs data-v-fde0c5aa=""><!----></defs><rect data-v-fde0c5aa="" fill="#FFFFFF" x="0" y="0" width="300px" height="300px" class="logo-background-square"></rect><defs data-v-fde0c5aa=""><!----></defs><g data-v-fde0c5aa="" id="4c7f6b9a-1fa5-4ac5-b557-2985aaacd049" fill="#1F1E1A" transform="matrix(1.9724602699279785,0,0,1.9724602699279785,90.52622102158436,130.83749371779066)"><path d="M0.64 8.65C0.64 11.37 2.91 13.57 5.70 13.57C7 13.57 8.25 13.05 9.16 12.21L8.79 11.80C7.97 12.54 6.87 12.99 5.71 12.99C3.23 12.99 1.23 11.05 1.23 8.64C1.23 6.24 3.23 4.31 5.71 4.31C6.87 4.31 7.98 4.76 8.79 5.52L9.14 5.07C8.23 4.26 7.01 3.75 5.70 3.75C2.91 3.75 0.64 5.94 0.64 8.65ZM10.51 9.90C10.51 12.05 12.04 13.57 14.11 13.57C16.20 13.57 17.71 12.05 17.71 9.90C17.71 7.77 16.20 6.24 14.11 6.24C12.04 6.24 10.51 7.77 10.51 9.90ZM11.09 9.91C11.09 8.08 12.36 6.80 14.11 6.80C15.88 6.80 17.14 8.08 17.14 9.91C17.14 11.75 15.88 13.02 14.11 13.02C12.36 13.02 11.09 11.75 11.09 9.91ZM19.91 13.55L20.50 13.55L20.50 3.16L19.91 3.16ZM23.55 13.55L24.14 13.55L24.14 3.16L23.55 3.16ZM26.33 9.91C26.33 12.05 27.83 13.57 29.89 13.57C31.05 13.57 32.05 13.13 32.72 12.40L32.38 12.03C31.79 12.67 30.91 13.03 29.92 13.03C28.22 13.03 26.99 11.84 26.91 10.07L33.28 10.07C33.32 7.81 32.03 6.24 29.89 6.24C27.83 6.24 26.33 7.77 26.33 9.91ZM26.92 9.55C27.06 7.90 28.25 6.78 29.89 6.78C31.56 6.78 32.63 7.90 32.75 9.55ZM34.58 9.76C34.58 11.79 35.99 13.26 37.95 13.26C39.34 13.26 40.43 12.54 40.94 11.38L40.94 12.75C40.94 14.57 39.76 15.74 37.95 15.72C36.90 15.69 36.08 15.36 35.32 14.64L35.01 15.08C35.87 15.85 36.81 16.24 37.97 16.27C40.11 16.28 41.50 14.91 41.50 12.75L41.50 6.26L40.94 6.26L40.94 8.13C40.42 6.97 39.34 6.24 37.94 6.24C35.99 6.24 34.58 7.71 34.58 9.76ZM35.13 9.77C35.13 8.04 36.34 6.78 38.02 6.78C39.70 6.78 40.94 8.04 40.94 9.77C40.94 11.49 39.70 12.75 38.02 12.75C36.33 12.75 35.13 11.49 35.13 9.77ZM43.43 9.91C43.43 12.05 44.93 13.57 46.98 13.57C48.15 13.57 49.14 13.13 49.81 12.40L49.48 12.03C48.89 12.67 48.01 13.03 47.01 13.03C45.32 13.03 44.09 11.84 44.00 10.07L50.37 10.07C50.41 7.81 49.13 6.24 46.98 6.24C44.93 6.24 43.43 7.77 43.43 9.91ZM44.02 9.55C44.16 7.90 45.35 6.78 46.98 6.78C48.65 6.78 49.73 7.90 49.84 9.55ZM51.11 3.77L54.42 13.55L55.03 13.55L58.02 4.59L60.98 13.55L61.59 13.55L64.89 3.77L64.26 3.77L61.31 12.85L58.32 3.77L57.71 3.77L54.74 12.85L51.77 3.77ZM65.65 9.91C65.65 12.05 67.14 13.57 69.20 13.57C70.36 13.57 71.36 13.13 72.03 12.40L71.69 12.03C71.11 12.67 70.22 13.03 69.23 13.03C67.54 13.03 66.30 11.84 66.22 10.07L72.59 10.07C72.63 7.81 71.34 6.24 69.20 6.24C67.14 6.24 65.65 7.77 65.65 9.91ZM66.23 9.55C66.37 7.90 67.56 6.78 69.20 6.78C70.87 6.78 71.95 7.90 72.06 9.55ZM74.03 11.42C74.03 12.66 75.00 13.57 76.44 13.57C77.70 13.57 78.74 13.12 79.35 12.11L79.37 13.55L79.94 13.55L79.91 8.71C79.90 7.20 78.96 6.24 77.24 6.24C76.13 6.24 75.29 6.65 74.42 7.28L74.70 7.73C75.47 7.14 76.24 6.78 77.15 6.78C78.61 6.78 79.32 7.52 79.34 8.75L79.34 9.46L76.75 9.46C75.07 9.46 74.03 10.21 74.03 11.42ZM74.59 11.41C74.59 10.47 75.38 9.98 76.80 9.98L79.35 9.98L79.35 11.17C78.90 12.45 77.88 13.03 76.52 13.03C75.33 13.03 74.59 12.38 74.59 11.41ZM82.61 13.55L83.20 13.55L83.20 9.60C83.33 7.91 84.31 6.85 85.92 6.85L85.92 6.24C84.62 6.27 83.66 6.92 83.20 8.09L83.20 6.26L82.61 6.26Z"></path></g><defs data-v-fde0c5aa=""><!----></defs><g data-v-fde0c5aa="" id="60e33a5b-2399-490f-9510-c6a3bee86e36" stroke="none" fill="#0978A6" transform="matrix(1.2121436595916748,0,0,1.2121436595916748,40,130.60570223547828)"><path d="M4.029 14.362L14.362 4.028l.707.707L4.736 15.07zM17.135 27.47L27.47 17.135l.707.707-10.333 10.333zM4.029 17.841l.707-.707 10.333 10.334-.707.707zM17.135 4.735l.708-.707L28.176 14.36l-.707.707z"></path><g><path d="M16 1.414l1.683 1.683L16 4.779l-1.683-1.683L16 1.414M16 0l-3.097 3.097L16 6.194l3.097-3.097L16 0zM16 27.221l1.683 1.683L16 30.586l-1.683-1.683L16 27.221m0-1.415l-3.097 3.097L16 32l3.097-3.097L16 25.806zM3.097 14.317L4.779 16l-1.683 1.683L1.414 16l1.683-1.683m0-1.414L0 16l3.097 3.097L6.194 16l-3.097-3.097zM28.903 14.317L30.586 16l-1.683 1.683L27.221 16l1.682-1.683m0-1.414L25.806 16l3.097 3.097L32 16l-3.097-3.097z"></path></g></g><!----></svg>